# xmcd
# 
# Track frame offsets:
#     150
#     15629
#     34542
#     60448
# 
# Disc length: 1010
# 
# Revision: 0
# Processed by: cddbd v1.5.2PL0 Copyright (c) Steve Scherf et al.
# Submitted via: fre:ac v1.0.17
# 
DISCID=2303f004
DTITLE=Maxim - Meine Soldaten
DYEAR=2013
DGENRE=Pop
TTITLE0=Meine Soldaten
TTITLE1=Pfennig ohne glück
TTITLE2=Meine Soldaten-Tua Remix
TTITLE3=Meine Soldaten-Instrumental
EXTD=
EXTT0=
EXTT1=
EXTT2=
EXTT3=
PLAYORDER=
